<svg width="13" height="13" viewBox="0 0 13 13" fill="none" xmlns="http://www.w3.org/2000/svg">
<path d="M9.375 1.25H11.875C12.0408 1.25 12.1997 1.31585 12.3169 1.43306C12.4342 1.55027 12.5 1.70924 12.5 1.875V11.875C12.5 12.0408 12.4342 12.1997 12.3169 12.3169C12.1997 12.4342 12.0408 12.5 11.875 12.5H0.625C0.45924 12.5 0.300268 12.4342 0.183058 12.3169C0.065848 12.1997 0 12.0408 0 11.875V1.875C0 1.70924 0.065848 1.55027 0.183058 1.43306C0.300268 1.31585 0.45924 1.25 0.625 1.25H3.125V0H4.375V1.25H8.125V0H9.375V1.25ZM11.25 5V2.5H9.375V3.75H8.125V2.5H4.375V3.75H3.125V2.5H1.25V5H11.25ZM11.25 6.25H1.25V11.25H11.25V6.25ZM2.5 7.5H5.625V10H2.5V7.5Z" fill="#666666"/>
</svg>
