<svg width="15" height="15" viewBox="0 0 15 15" fill="none" xmlns="http://www.w3.org/2000/svg">
<path d="M0.161726 9.04458C-0.0539086 8.02615 -0.0539086 6.97385 0.161726 5.95541C0.994002 6.05289 1.72131 5.77771 1.95824 5.20487C2.19593 4.63127 1.87726 3.92271 1.21894 3.4031C1.78657 2.53058 2.53058 1.78657 3.4031 1.21894C3.92196 1.87651 4.63127 2.19593 5.20487 1.95824C5.77846 1.72056 6.05364 0.994002 5.95541 0.161726C6.97385 -0.0539086 8.02615 -0.0539086 9.04458 0.161726C8.94711 0.994002 9.22229 1.72131 9.79513 1.95824C10.3687 2.19593 11.0773 1.87726 11.5969 1.21894C12.4694 1.78657 13.2134 2.53058 13.7811 3.4031C13.1235 3.92196 12.8041 4.63127 13.0418 5.20487C13.2794 5.77846 14.006 6.05364 14.8383 5.95541C15.0539 6.97385 15.0539 8.02615 14.8383 9.04458C14.006 8.94711 13.2787 9.22229 13.0418 9.79513C12.8041 10.3687 13.1227 11.0773 13.7811 11.5969C13.2134 12.4694 12.4694 13.2134 11.5969 13.7811C11.078 13.1235 10.3687 12.8041 9.79513 13.0418C9.22154 13.2794 8.94636 14.006 9.04458 14.8383C8.02615 15.0539 6.97385 15.0539 5.95541 14.8383C6.05289 14.006 5.77771 13.2787 5.20487 13.0418C4.63127 12.8041 3.92271 13.1227 3.4031 13.7811C2.53058 13.2134 1.78657 12.4694 1.21894 11.5969C1.87651 11.078 2.19593 10.3687 1.95824 9.79513C1.72056 9.22154 0.994002 8.94636 0.161726 9.04458ZM1.50161 7.65746C2.32639 7.88615 3.00646 8.40875 3.34387 9.22154C3.68053 10.0351 3.56881 10.8861 3.14742 11.6299C3.2194 11.7064 3.29363 11.7806 3.37011 11.8526C4.11466 11.4312 4.96493 11.3202 5.77846 11.6561C6.59124 11.9935 7.11385 12.6736 7.34254 13.4984C7.44751 13.5014 7.55248 13.5014 7.65746 13.4984C7.88615 12.6736 8.40875 11.9935 9.22154 11.6561C10.0351 11.3195 10.8861 11.4312 11.6299 11.8526C11.7064 11.7806 11.7806 11.7064 11.8526 11.6299C11.4312 10.8853 11.3202 10.0351 11.6561 9.22154C11.9935 8.40875 12.6736 7.88615 13.4984 7.65746C13.5014 7.55248 13.5014 7.44751 13.4984 7.34254C12.6736 7.11385 11.9935 6.59124 11.6561 5.77846C11.3195 4.96493 11.4312 4.11391 11.8526 3.37011C11.7803 3.29393 11.7061 3.21967 11.6299 3.14742C10.8853 3.56881 10.0351 3.67978 9.22154 3.34387C8.40875 3.00646 7.88615 2.32639 7.65746 1.50161C7.5525 1.49884 7.44749 1.49884 7.34254 1.50161C7.11385 2.32639 6.59124 3.00646 5.77846 3.34387C4.96493 3.68053 4.11391 3.56881 3.37011 3.14742C3.29363 3.2194 3.2194 3.29363 3.14742 3.37011C3.56881 4.11466 3.67978 4.96493 3.34387 5.77846C3.00646 6.59124 2.32639 7.11385 1.50161 7.34254C1.49862 7.44751 1.49862 7.55248 1.50161 7.65746ZM7.5 9.74939C6.90342 9.74939 6.33128 9.5124 5.90944 9.09056C5.48759 8.66872 5.25061 8.09658 5.25061 7.5C5.25061 6.90342 5.48759 6.33128 5.90944 5.90944C6.33128 5.48759 6.90342 5.25061 7.5 5.25061C8.09658 5.25061 8.66872 5.48759 9.09056 5.90944C9.5124 6.33128 9.74939 6.90342 9.74939 7.5C9.74939 8.09658 9.5124 8.66872 9.09056 9.09056C8.66872 9.5124 8.09658 9.74939 7.5 9.74939ZM7.5 8.2498C7.69886 8.2498 7.88957 8.1708 8.03019 8.03019C8.1708 7.88957 8.2498 7.69886 8.2498 7.5C8.2498 7.30114 8.1708 7.11043 8.03019 6.96981C7.88957 6.8292 7.69886 6.7502 7.5 6.7502C7.30114 6.7502 7.11043 6.8292 6.96981 6.96981C6.8292 7.11043 6.7502 7.30114 6.7502 7.5C6.7502 7.69886 6.8292 7.88957 6.96981 8.03019C7.11043 8.1708 7.30114 8.2498 7.5 8.2498Z" fill="#666666"/>
</svg>
